<svg xmlns="http://www.w3.org/2000/svg" viewBox="0 0 512 512">
  <defs>
    <linearGradient id="bgGrad" x1="0%" y1="0%" x2="100%" y2="100%">
      <stop offset="0%" style="stop-color:#2563eb"/>
      <stop offset="100%" style="stop-color:#1d4ed8"/>
    </linearGradient>
  </defs>

  <!-- Background -->
  <rect width="512" height="512" rx="96" fill="url(#bgGrad)"/>

  <!-- Calendar outline -->
  <rect x="96" y="128" width="320" height="288" rx="24" fill="white" opacity="0.95"/>

  <!-- Calendar header -->
  <rect x="96" y="128" width="320" height="72" rx="24" fill="#1e40af"/>
  <rect x="96" y="176" width="320" height="24" fill="#1e40af"/>

  <!-- Calendar rings -->
  <rect x="160" y="104" width="24" height="56" rx="12" fill="white"/>
  <rect x="328" y="104" width="24" height="56" rx="12" fill="white"/>

  <!-- Grid lines -->
  <line x1="96" y1="264" x2="416" y2="264" stroke="#e5e7eb" stroke-width="2"/>
  <line x1="96" y1="344" x2="416" y2="344" stroke="#e5e7eb" stroke-width="2"/>
  <line x1="202" y1="200" x2="202" y2="416" stroke="#e5e7eb" stroke-width="2"/>
  <line x1="309" y1="200" x2="309" y2="416" stroke="#e5e7eb" stroke-width="2"/>

  <!-- Checkmark/sync icon in center -->
  <circle cx="256" cy="304" r="56" fill="#059669"/>
  <path d="M228 304 L248 324 L284 284" stroke="white" stroke-width="12" stroke-linecap="round" stroke-linejoin="round" fill="none"/>

  <!-- Small dots representing staff -->
  <circle cx="149" cy="232" r="12" fill="#2563eb"/>
  <circle cx="256" cy="232" r="12" fill="#8b5cf6"/>
  <circle cx="362" cy="232" r="12" fill="#f59e0b"/>
  <circle cx="149" cy="384" r="12" fill="#06b6d4"/>
  <circle cx="362" cy="384" r="12" fill="#10b981"/>
</svg>
